<svg width="132" height="27" viewBox="0 0 132 27" fill="none" xmlns="http://www.w3.org/2000/svg">
<g clip-path="url(#clip0_23_737)">
<path d="M30.321 23V5.54545H34.5398V12.5511H41.4176V5.54545H45.6278V23H41.4176V15.9858H34.5398V23H30.321ZM48.2741 23V9.90909H52.3224V12.2955H52.4588C52.6974 11.4318 53.0866 10.7898 53.6264 10.3693C54.1662 9.94318 54.794 9.73011 55.5099 9.73011C55.7031 9.73011 55.902 9.74432 56.1065 9.77273C56.3111 9.79545 56.5014 9.83239 56.6776 9.88352V13.5057C56.4787 13.4375 56.2173 13.3835 55.8935 13.3438C55.5753 13.304 55.2912 13.2841 55.0412 13.2841C54.5469 13.2841 54.1009 13.3949 53.7031 13.6165C53.3111 13.8324 53.0014 14.1364 52.7741 14.5284C52.5526 14.9148 52.4418 15.3693 52.4418 15.892V23H48.2741ZM56.4453 8.97159V5.54545H71.1982V8.97159H65.9055V23H61.7464V8.97159H56.4453ZM75.1676 23.2216C74.3324 23.2216 73.5909 23.0824 72.9432 22.804C72.3011 22.5199 71.7926 22.0937 71.4176 21.5256C71.0483 20.9517 70.8636 20.233 70.8636 19.3693C70.8636 18.642 70.9915 18.0284 71.2472 17.5284C71.5028 17.0284 71.8551 16.6222 72.304 16.3097C72.7528 15.9972 73.2699 15.7614 73.8551 15.6023C74.4403 15.4375 75.0653 15.3267 75.7301 15.2699C76.4744 15.2017 77.0739 15.1307 77.5284 15.0568C77.983 14.9773 78.3125 14.8665 78.517 14.7244C78.7273 14.5767 78.8324 14.3693 78.8324 14.1023V14.0597C78.8324 13.6222 78.6818 13.2841 78.3807 13.0455C78.0795 12.8068 77.6733 12.6875 77.1619 12.6875C76.6108 12.6875 76.1676 12.8068 75.8324 13.0455C75.4972 13.2841 75.2841 13.6136 75.1932 14.0341L71.3494 13.8977C71.4631 13.1023 71.7557 12.392 72.2273 11.767C72.7045 11.1364 73.358 10.642 74.1875 10.2841C75.0227 9.92045 76.0256 9.73864 77.196 9.73864C78.0313 9.73864 78.8011 9.83807 79.5057 10.0369C80.2102 10.2301 80.8239 10.5142 81.3466 10.8892C81.8693 11.2585 82.2727 11.7131 82.5568 12.2528C82.8466 12.7926 82.9915 13.4091 82.9915 14.1023V23H79.071V21.1761H78.9688C78.7358 21.6193 78.4375 21.9943 78.0739 22.3011C77.7159 22.608 77.2926 22.8381 76.804 22.9915C76.321 23.1449 75.7756 23.2216 75.1676 23.2216ZM76.4545 20.4943C76.9034 20.4943 77.3068 20.4034 77.6648 20.2216C78.0284 20.0398 78.3182 19.7898 78.5341 19.4716C78.75 19.1477 78.858 18.7727 78.858 18.3466V17.1023C78.7386 17.1648 78.5938 17.2216 78.4233 17.2727C78.2585 17.3239 78.0767 17.3722 77.8778 17.4176C77.679 17.4631 77.4744 17.5028 77.2642 17.5369C77.054 17.571 76.8523 17.6023 76.6591 17.6307C76.267 17.6932 75.9318 17.7898 75.6534 17.9205C75.3807 18.0511 75.1705 18.2216 75.0227 18.4318C74.8807 18.6364 74.8097 18.8807 74.8097 19.1648C74.8097 19.5966 74.9631 19.9261 75.2699 20.1534C75.5824 20.3807 75.9773 20.4943 76.4545 20.4943ZM89.7074 5.54545V23H85.5398V5.54545H89.7074ZM98.4794 23.2472C97.1101 23.2472 95.9283 22.9773 94.9339 22.4375C93.9453 21.892 93.1839 21.1165 92.6499 20.1108C92.1214 19.0994 91.8572 17.8977 91.8572 16.5057C91.8572 15.1534 92.1243 13.9716 92.6584 12.9602C93.1925 11.9432 93.9453 11.1534 94.9169 10.5909C95.8885 10.0227 97.0334 9.73864 98.3516 9.73864C99.2834 9.73864 100.136 9.88352 100.908 10.1733C101.681 10.4631 102.349 10.892 102.911 11.4602C103.474 12.0284 103.911 12.7301 104.224 13.5653C104.536 14.3949 104.692 15.3466 104.692 16.4205V17.4602H93.3146V15.0398H100.815C100.809 14.5966 100.704 14.2017 100.499 13.8551C100.295 13.5085 100.013 13.2386 99.6555 13.0455C99.3033 12.8466 98.897 12.7472 98.4368 12.7472C97.9709 12.7472 97.5533 12.8523 97.1839 13.0625C96.8146 13.267 96.522 13.5483 96.3061 13.9062C96.0902 14.2585 95.9766 14.6591 95.9652 15.108V17.571C95.9652 18.1051 96.0703 18.5739 96.2805 18.9773C96.4908 19.375 96.7891 19.6847 97.1754 19.9062C97.5618 20.1278 98.022 20.2386 98.5561 20.2386C98.9254 20.2386 99.2607 20.1875 99.5618 20.0852C99.8629 19.983 100.121 19.8324 100.337 19.6335C100.553 19.4347 100.715 19.1903 100.823 18.9006L104.65 19.0114C104.491 19.8693 104.141 20.6165 103.602 21.2528C103.067 21.8835 102.366 22.375 101.496 22.7273C100.627 23.0739 99.6214 23.2472 98.4794 23.2472ZM110.989 15.5341V23H106.821V9.90909H110.784V12.3125H110.929C111.219 11.5114 111.713 10.8835 112.412 10.429C113.111 9.96875 113.943 9.73864 114.909 9.73864C115.83 9.73864 116.628 9.94602 117.304 10.3608C117.986 10.7699 118.514 11.3437 118.889 12.0824C119.27 12.8153 119.457 13.6733 119.452 14.6562V23H115.284V15.4744C115.29 14.7472 115.105 14.179 114.73 13.7699C114.361 13.3608 113.847 13.1562 113.188 13.1562C112.75 13.1562 112.364 13.2528 112.028 13.446C111.699 13.6335 111.443 13.9034 111.261 14.2557C111.085 14.608 110.994 15.0341 110.989 15.5341ZM129.421 9.90909V12.9773H121.163V9.90909H129.421ZM122.893 6.77273H127.06V18.8835C127.06 19.1392 127.1 19.3466 127.18 19.5057C127.265 19.6591 127.387 19.7699 127.546 19.8381C127.705 19.9006 127.896 19.9318 128.117 19.9318C128.276 19.9318 128.444 19.9176 128.62 19.8892C128.802 19.8551 128.938 19.8267 129.029 19.804L129.66 22.8125C129.461 22.8693 129.18 22.9403 128.816 23.0256C128.458 23.1108 128.029 23.1648 127.529 23.1875C126.552 23.233 125.714 23.1193 125.015 22.8466C124.322 22.5682 123.79 22.1364 123.421 21.5511C123.058 20.9659 122.881 20.2301 122.893 19.3438V6.77273Z" fill="white"/>
<path d="M18.7453 4.75V2.5H5.25V4.75H1.5V6.53125C1.5 8.03125 1.94531 9.47453 2.75437 10.5911C3.37922 11.4536 4.35609 12.0489 5.23453 12.3353C5.48953 13.7083 6.18141 15.0133 7.58719 16.0773C8.61844 16.8583 9.85828 17.4306 10.9688 17.6645V21.4375H7.5V23.5H16.5V21.4375H13.0312V17.6645C14.1417 17.4302 15.3811 16.8583 16.4128 16.0773C17.8191 15.0133 18.5105 13.7083 18.7655 12.3353C19.6439 12.0489 20.6208 11.4536 21.2456 10.5911C22.0547 9.47453 22.5 8.03125 22.5 6.53125V4.75H18.7453ZM4.425 9.38125C3.92438 8.69313 3.62016 7.76875 3.57 6.8125H5.25V9.97047C5.06531 9.91703 4.64438 9.68359 4.425 9.38125ZM19.575 9.38125C19.3594 9.69109 19.0312 9.97094 18.75 9.97094C18.75 8.92094 18.75 7.80109 18.7477 6.8125H20.4305C20.3798 7.76875 20.0625 8.68281 19.575 9.38125Z" fill="white"/>
</g>
<defs>
<clipPath id="clip0_23_737">
<rect width="132" height="27" fill="white"/>
</clipPath>
</defs>
</svg>
